<?xml version="1.0" encoding="UTF-8" standalone="no"?>
<svg
   xmlns:dc="http://purl.org/dc/elements/1.1/"
   xmlns:cc="http://creativecommons.org/ns#"
   xmlns:rdf="http://www.w3.org/1999/02/22-rdf-syntax-ns#"
   xmlns:svg="http://www.w3.org/2000/svg"
   xmlns="http://www.w3.org/2000/svg"
   xmlns:sodipodi="http://sodipodi.sourceforge.net/DTD/sodipodi-0.dtd"
   xmlns:inkscape="http://www.inkscape.org/namespaces/inkscape"
   viewBox="0 0 14 14"
   height="14"
   width="14"
   xml:space="preserve"
   version="1.1"
   id="svg2"
   inkscape:version="0.91 r13725"
   sodipodi:docname="crunchyroll_logo_vertical_14.svg"><sodipodi:namedview
     pagecolor="#ffffff"
     bordercolor="#666666"
     borderopacity="1"
     objecttolerance="10"
     gridtolerance="10"
     guidetolerance="10"
     inkscape:pageopacity="0"
     inkscape:pageshadow="2"
     inkscape:window-width="1366"
     inkscape:window-height="702"
     id="namedview3398"
     showgrid="false"
     inkscape:snap-page="false"
     fit-margin-top="3"
     fit-margin-left="3"
     fit-margin-bottom="3"
     fit-margin-right="3"
     inkscape:zoom="41.574015"
     inkscape:cx="8.1170887"
     inkscape:cy="10.282815"
     inkscape:window-x="0"
     inkscape:window-y="27"
     inkscape:window-maximized="1"
     inkscape:current-layer="svg2" /><metadata
     id="metadata8"><rdf:RDF><cc:Work
         rdf:about=""><dc:format>image/svg+xml</dc:format><dc:type
           rdf:resource="http://purl.org/dc/dcmitype/StillImage" /><dc:title></dc:title></cc:Work></rdf:RDF></metadata><defs
     id="defs6"><clipPath
       id="clipPath18"
       clipPathUnits="userSpaceOnUse"><path
         id="path20"
         d="m 0,0 5199,0 0,5846.67 -5199,0 L 0,0 Z"
         inkscape:connector-curvature="0" /></clipPath></defs><g
     transform="matrix(0.03164096,0,0,-0.03164096,-1.2196313,18.500033)"
     id="g10"><g
       transform="scale(0.1,0.1)"
       id="g12"><g
         id="g14"><g
           clip-path="url(#clipPath18)"
           id="g16"><path
             id="path44"
             style="fill:#f57d1a;fill-opacity:1;fill-rule:nonzero;stroke:none"
             d="m 925.488,3368.11 c 0,1073.86 870.542,1944.41 1944.442,1944.41 1028.08,0 1869.71,-797.93 1939.6,-1808.28 2.5,43.09 3.78,86.51 3.78,130.24 0,1221.75 -990.42,2212.19 -2212.17,2212.19 -1221.75,0 -2212.171,-990.44 -2212.171,-2212.19 0,-1221.75 990.421,-2212.18 2212.171,-2212.18 50.53,0 100.66,1.71 150.35,5.03 C 1732.75,1488.6 925.488,2334.02 925.488,3368.11"
             inkscape:connector-curvature="0" /><path
             id="path46"
             style="fill:#f57d1a;fill-opacity:1;fill-rule:nonzero;stroke:none"
             d="m 3946.37,3258.56 c -390.82,0 -707.67,316.86 -707.67,707.69 0,306.54 194.91,567.51 467.53,665.88 -216,113.66 -461.93,178.1 -722.97,178.1 -858.58,0 -1554.56,-696.02 -1554.56,-1554.62 0,-858.55 695.98,-1554.6 1554.56,-1554.6 858.6,0 1554.61,696.05 1554.61,1554.6 0,97.34 -9.04,192.57 -26.15,284.97 -129.19,-171.28 -334.33,-282.02 -565.35,-282.02"
             inkscape:connector-curvature="0" /></g></g></g></g></svg>