<?xml version="1.0" encoding="UTF-8" standalone="no"?>
<!-- Generator: Adobe Illustrator 13.0.0, SVG Export Plug-In . SVG Version: 6.00 Build 14948)  -->

<svg
   xmlns:dc="http://purl.org/dc/elements/1.1/"
   xmlns:cc="http://creativecommons.org/ns#"
   xmlns:rdf="http://www.w3.org/1999/02/22-rdf-syntax-ns#"
   xmlns:svg="http://www.w3.org/2000/svg"
   xmlns="http://www.w3.org/2000/svg"
   xmlns:sodipodi="http://sodipodi.sourceforge.net/DTD/sodipodi-0.dtd"
   xmlns:inkscape="http://www.inkscape.org/namespaces/inkscape"
   version="1.1"
   id="Layer_1"
   x="0px"
   y="0px"
   width="14"
   height="14"
   viewBox="0 0 14 14"
   xml:space="preserve"
   inkscape:version="0.91 r13725"
   sodipodi:docname="Hulu.svg"><metadata
     id="metadata3589"><rdf:RDF><cc:Work
         rdf:about=""><dc:format>image/svg+xml</dc:format><dc:type
           rdf:resource="http://purl.org/dc/dcmitype/StillImage" /><dc:title></dc:title></cc:Work></rdf:RDF></metadata><defs
     id="defs3587" /><sodipodi:namedview
     pagecolor="#ffffff"
     bordercolor="#666666"
     borderopacity="1"
     objecttolerance="10"
     gridtolerance="10"
     guidetolerance="10"
     inkscape:pageopacity="0"
     inkscape:pageshadow="2"
     inkscape:window-width="1366"
     inkscape:window-height="702"
     id="namedview3585"
     showgrid="true"
     fit-margin-top="0"
     fit-margin-left="0"
     fit-margin-right="0"
     fit-margin-bottom="0"
     showguides="false"
     inkscape:zoom="16.32"
     inkscape:cx="11.12761"
     inkscape:cy="6.7665299"
     inkscape:window-x="0"
     inkscape:window-y="27"
     inkscape:window-maximized="1"
     inkscape:current-layer="Layer_1"><inkscape:grid
       type="xygrid"
       id="grid3591" /></sodipodi:namedview><linearGradient
     id="SVGID_1_"
     gradientUnits="userSpaceOnUse"
     x1="150.0015"
     y1="1.3789001"
     x2="150.0015"
     y2="98.621597"
     gradientTransform="matrix(0.14396573,0,0,0.14397071,1.38012,-0.19853526)"><stop
       offset="0"
       style="stop-color:#A3CC39"
       id="stop3577" /><stop
       offset="0.698"
       style="stop-color:#85BD40"
       id="stop3579" /><stop
       offset="1"
       style="stop-color:#65AD45"
       id="stop3581" /></linearGradient><path
     style="fill:url(#SVGID_1_)"
     d="M 10.371642,4.7190724 C 9.7816722,4.4635244 9.1329622,4.3454684 8.4250832,4.3650484 l -2.1825205,0 -0.8453667,0.098476 c -0.1966572,0.058884 -0.2949858,0.098332 -0.2949858,0.098332 l 0,-4.56185602 -3.3621758,0 0,13.99999962 3.3621758,0 0,-5.6630876 c 0.019723,-0.2361119 0.098329,-0.471792 0.2752624,-0.629152 0.1769339,-0.15736 0.3735911,-0.255548 0.6488536,-0.255548 l 1.966284,0 c 0.235816,0 0.452196,0.098908 0.62913,0.255548 0.176934,0.15736 0.255396,0.3930401 0.275119,0.629152 l 0,5.6630876 3.3621728,0 0,-6.0954316 c 0,-0.845684 -0.176934,-1.53372 -0.511222,-2.064684 -0.35358,-0.51124 -0.80592,-0.884844 -1.376168,-1.120812 z"
     id="path3583"
     inkscape:connector-curvature="0"
     sodipodi:nodetypes="ccccccccccsssccccscc" /></svg>