<?xml version="1.0" encoding="UTF-8" standalone="no"?>
<svg
   xmlns:dc="http://purl.org/dc/elements/1.1/"
   xmlns:cc="http://creativecommons.org/ns#"
   xmlns:rdf="http://www.w3.org/1999/02/22-rdf-syntax-ns#"
   xmlns:svg="http://www.w3.org/2000/svg"
   xmlns="http://www.w3.org/2000/svg"
   xmlns:sodipodi="http://sodipodi.sourceforge.net/DTD/sodipodi-0.dtd"
   xmlns:inkscape="http://www.inkscape.org/namespaces/inkscape"
   width="14"
   height="14"
   viewBox="0 0 14 14"
   id="svg3599"
   version="1.1"
   inkscape:version="0.91 r13725"
   sodipodi:docname="Official Site.svg">
  <metadata
     id="metadata3607">
    <rdf:RDF>
      <cc:Work
         rdf:about="">
        <dc:format>image/svg+xml</dc:format>
        <dc:type
           rdf:resource="http://purl.org/dc/dcmitype/StillImage" />
        <dc:title></dc:title>
      </cc:Work>
    </rdf:RDF>
  </metadata>
  <defs
     id="defs3605" />
  <sodipodi:namedview
     pagecolor="#ffffff"
     bordercolor="#666666"
     borderopacity="1"
     objecttolerance="10"
     gridtolerance="10"
     guidetolerance="10"
     inkscape:pageopacity="0"
     inkscape:pageshadow="2"
     inkscape:window-width="1366"
     inkscape:window-height="702"
     id="namedview3603"
     showgrid="false"
     fit-margin-top="0"
     fit-margin-left="0"
     fit-margin-right="0"
     fit-margin-bottom="0"
     inkscape:zoom="36.428571"
     inkscape:cx="7"
     inkscape:cy="7"
     inkscape:window-x="0"
     inkscape:window-y="27"
     inkscape:window-maximized="1"
     inkscape:current-layer="svg3599" />
  <path
     d="m 12.352941,10.294118 q 0,-0.3431376 -0.240196,-0.5833337 L 10.328431,7.9264706 Q 10.088235,7.6862745 9.745098,7.6862745 q -0.3602941,0 -0.617647,0.2745098 0.025735,0.025735 0.1629902,0.158701 0.1372549,0.1329657 0.1844363,0.1844363 0.047181,0.051471 0.1286764,0.1629902 0.081495,0.1115196 0.1115196,0.21875 0.030024,0.1072304 0.030024,0.2359068 0,0.3431373 -0.240196,0.5833334 -0.2401961,0.240196 -0.5833334,0.240196 -0.1286764,0 -0.2359068,-0.030024 Q 8.5784314,9.685049 8.4669118,9.6035539 8.3553922,9.5220588 8.3039216,9.4748775 8.252451,9.4276961 8.1194853,9.2904412 7.9865196,9.1531863 7.9607843,9.127451 7.6776961,9.3933824 7.6776961,9.7536765 q 0,0.3431375 0.2401961,0.5833335 l 1.7671568,1.775735 q 0.2316177,0.231618 0.583333,0.231618 0.343138,0 0.583334,-0.223039 l 1.261029,-1.252451 q 0.240196,-0.240197 0.240196,-0.574755 z M 6.3223039,4.2463235 q 0,-0.3431372 -0.2401961,-0.5833333 L 4.314951,1.8872549 Q 4.0747549,1.6470588 3.7316176,1.6470588 q -0.3345588,0 -0.5833333,0.2316177 l -1.2610294,1.252451 q -0.2401961,0.240196 -0.2401961,0.5747549 0,0.3431372 0.2401961,0.5833333 l 1.7843137,1.7843137 q 0.2316177,0.2316177 0.5833334,0.2316177 0.3602941,0 0.617647,-0.2659314 Q 4.8468137,6.0134804 4.7095588,5.8805147 4.5723039,5.747549 4.5251225,5.6960784 4.4779412,5.6446078 4.3964461,5.5330882 4.314951,5.4215686 4.2849265,5.3143382 4.254902,5.2071078 4.254902,5.0784314 q 0,-0.3431373 0.240196,-0.5833334 0.2401961,-0.240196 0.5833334,-0.240196 0.1286764,0 0.2359068,0.030024 0.1072304,0.030024 0.21875,0.1115196 0.1115196,0.081495 0.1629902,0.1286764 0.051471,0.047181 0.1844363,0.1844363 Q 6.0134804,4.8468137 6.0392157,4.872549 6.3223039,4.6066176 6.3223039,4.2463235 Z M 14,10.294118 q 0,1.029411 -0.729167,1.741421 L 12.009804,13.28799 Q 11.297794,14 10.268382,14 9.2303922,14 8.5183824,13.270833 L 6.7512255,11.495098 q -0.7120098,-0.71201 -0.7120098,-1.7414215 0,-1.0551471 0.7549019,-1.7928922 L 6.0392157,7.2058824 Q 5.3014706,7.9607843 4.254902,7.9607843 q -1.0294118,0 -1.75,-0.7205882 L 0.72058824,5.4558824 Q 0,4.7352941 0,3.7058824 0,2.6764706 0.72916667,1.9644608 L 1.9901961,0.7120098 Q 2.7022059,0 3.7316176,0 q 1.0379902,0 1.75,0.72916667 L 7.2487745,2.504902 q 0.7120098,0.7120098 0.7120098,1.7414215 0,1.0551471 -0.7549019,1.7928922 L 7.9607843,6.7941176 Q 8.6985294,6.0392157 9.745098,6.0392157 q 1.029412,0 1.75,0.7205882 l 1.784314,1.7843137 Q 14,9.2647059 14,10.294118 Z"
     id="path3601"
     style="fill:#074D95;fill-opacity:1;fill-rule:nonzero;stroke:none"
     inkscape:connector-curvature="0" />
</svg>
